<svg width="30" height="30" viewBox="0 0 30 30" fill="none" xmlns="http://www.w3.org/2000/svg">
<rect width="30" height="30" rx="5" fill="#4296D3"/>
<g clip-path="url(#clip0_514_106350)">
<path d="M19.2393 16.9629C18.3274 16.9629 17.524 17.4114 17.0193 18.0935L12.6559 15.8593C12.7284 15.6124 12.7793 15.3565 12.7793 15.0864C12.7793 14.7202 12.7042 14.372 12.5745 14.0517L17.1409 11.3038C17.6491 11.9002 18.396 12.2871 19.2393 12.2871C20.7659 12.2871 22.0078 11.0452 22.0078 9.51855C22.0078 7.99188 20.7659 6.75 19.2393 6.75C17.7126 6.75 16.4707 7.99188 16.4707 9.51855C16.4707 9.87038 16.5431 10.2041 16.6633 10.5139L12.0833 13.2699C11.5756 12.6912 10.8394 12.3179 10.0107 12.3179C8.48407 12.3179 7.24219 13.5598 7.24219 15.0864C7.24219 16.6131 8.48407 17.855 10.0107 17.855C10.9376 17.855 11.7547 17.3933 12.2574 16.692L16.6064 18.919C16.5263 19.1776 16.4707 19.4469 16.4707 19.7314C16.4707 21.2581 17.7126 22.5 19.2393 22.5C20.7659 22.5 22.0078 21.2581 22.0078 19.7314C22.0078 18.2048 20.7659 16.9629 19.2393 16.9629Z" fill="white"/>
</g>
<defs>
<clipPath id="clip0_514_106350">
<rect width="15.75" height="15.75" fill="white" transform="translate(6.75 6.75)"/>
</clipPath>
</defs>
</svg>
