<svg width="34" height="35" viewBox="0 0 34 35" fill="none" xmlns="http://www.w3.org/2000/svg">
<g opacity="0.4">
<path opacity="0.4" d="M29.0417 14.9358H24.9476C21.5901 14.9358 18.8559 12.2016 18.8559 8.84408V4.74992C18.8559 3.97075 18.2184 3.33325 17.4392 3.33325H11.4326C7.06925 3.33325 3.54175 6.16659 3.54175 11.2241V23.7758C3.54175 28.8333 7.06925 31.6666 11.4326 31.6666H22.5676C26.9309 31.6666 30.4584 28.8333 30.4584 23.7758V16.3524C30.4584 15.5733 29.8209 14.9358 29.0417 14.9358Z" fill="#212B36"/>
<path d="M22.3833 3.63078C21.8025 3.04995 20.7966 3.44662 20.7966 4.25412V9.19828C20.7966 11.2666 22.5533 12.9808 24.6925 12.9808C26.0383 12.9949 27.9083 12.9949 29.5091 12.9949C30.3166 12.9949 30.7416 12.0458 30.175 11.4791C28.135 9.42495 24.48 5.72745 22.3833 3.63078Z" fill="#212B36"/>
<path d="M16.3341 18.1658L13.5008 15.3324C13.4866 15.3183 13.4725 15.3183 13.4725 15.3041C13.3875 15.2191 13.2741 15.1483 13.1608 15.0916C13.1466 15.0916 13.1466 15.0916 13.1325 15.0916C13.0191 15.0491 12.9058 15.0349 12.7925 15.0208C12.75 15.0208 12.7216 15.0208 12.6791 15.0208C12.5941 15.0208 12.495 15.0491 12.41 15.0774C12.3675 15.0916 12.3391 15.1058 12.3108 15.1199C12.1975 15.1766 12.0841 15.2333 11.9991 15.3324L9.16579 18.1658C8.75496 18.5766 8.75496 19.2566 9.16579 19.6674C9.57662 20.0783 10.2566 20.0783 10.6675 19.6674L11.6875 18.6474V24.5833C11.6875 25.1641 12.1691 25.6458 12.75 25.6458C13.3308 25.6458 13.8125 25.1641 13.8125 24.5833V18.6474L14.8325 19.6674C15.045 19.8799 15.3141 19.9791 15.5833 19.9791C15.8525 19.9791 16.1216 19.8799 16.3341 19.6674C16.745 19.2566 16.745 18.5766 16.3341 18.1658Z" fill="#212B36"/>
</g>
</svg>
