<svg width="24" height="24" viewBox="0 0 24 24" fill="none" xmlns="http://www.w3.org/2000/svg">
<path d="M21.224 3.24662L10.9237 1.52554C10.7217 1.49186 10.5147 1.5026 10.3172 1.557C10.1198 1.6114 9.93651 1.70816 9.78022 1.84055C9.62392 1.97294 9.49833 2.13778 9.41219 2.32362C9.32604 2.50945 9.28141 2.71182 9.28139 2.91665L9.28136 11.0197C9.28122 11.3934 9.42907 11.7519 9.69259 12.0168C9.95611 12.2817 10.3138 12.4315 10.6875 12.4333H16.7319L19.0717 15.0806C19.1224 15.1368 19.189 15.1764 19.2627 15.194C19.3364 15.2117 19.4137 15.2065 19.4843 15.1793C19.555 15.1521 19.6158 15.1041 19.6586 15.0416C19.7014 14.9791 19.7243 14.9051 19.7242 14.8294V12.4333H20.9916C21.3654 12.4321 21.7235 12.2825 21.9872 12.0175C22.2508 11.7524 22.3985 11.3936 22.3977 11.0197V4.63776C22.3988 4.30436 22.2814 3.98142 22.0664 3.7266C21.8514 3.47178 21.5529 3.30166 21.224 3.24662ZM15.4946 10.8772C15.3959 10.8765 15.3015 10.8369 15.2319 10.7671C15.1622 10.6972 15.1229 10.6027 15.1224 10.5041C15.1219 10.4054 15.1603 10.3106 15.2292 10.24C15.2982 10.1695 15.3922 10.129 15.4908 10.1273C15.5895 10.128 15.6838 10.1676 15.7535 10.2374C15.8232 10.3073 15.8625 10.4017 15.863 10.5004C15.8635 10.599 15.8251 10.6939 15.7561 10.7644C15.6872 10.835 15.5932 10.8755 15.4946 10.8772ZM16.1845 7.83623C16.0928 7.86828 16.0129 7.92734 15.9553 8.00564C15.8978 8.08393 15.8652 8.17781 15.862 8.27493V9.38857C15.8607 9.48715 15.8206 9.58124 15.7504 9.65048C15.6803 9.71971 15.5856 9.75853 15.487 9.75853C15.3885 9.75853 15.2938 9.7197 15.2237 9.65046C15.1535 9.58122 15.1134 9.48713 15.1121 9.38855V8.27494C15.1145 8.02696 15.1922 7.78557 15.3348 7.5827C15.4774 7.37982 15.6783 7.22502 15.9108 7.13878C16.1094 7.06131 16.2832 6.93109 16.4133 6.76216C16.5434 6.59323 16.625 6.39199 16.6492 6.18013C16.6734 5.96828 16.6393 5.75383 16.5506 5.55991C16.462 5.36598 16.3221 5.19994 16.146 5.07966C15.9699 4.95938 15.7643 4.88944 15.5514 4.87736C15.3386 4.86528 15.1264 4.91153 14.9378 5.01113C14.7493 5.11072 14.5915 5.25988 14.4815 5.44253C14.3714 5.62518 14.3133 5.8344 14.3134 6.04763C14.3121 6.14621 14.272 6.2403 14.2018 6.30954C14.1316 6.37878 14.037 6.41759 13.9384 6.41759C13.8398 6.41759 13.7452 6.37876 13.6751 6.30952C13.6049 6.24028 13.5648 6.14619 13.5635 6.04761C13.5659 5.76127 13.6319 5.47904 13.7568 5.22133C13.8816 4.96363 14.0621 4.73687 14.2853 4.55747C14.5085 4.37807 14.7688 4.25049 15.0473 4.18397C15.3258 4.11745 15.6156 4.11364 15.8958 4.17282C17.7305 4.5488 17.9317 7.1742 16.1845 7.83623ZM8.53143 11.0197V9.57981L2.7757 10.5435C2.4483 10.6016 2.15161 10.7726 1.93719 11.0267C1.72277 11.2809 1.60419 11.6021 1.60205 11.9346V18.3165C1.60126 18.6904 1.74891 19.0493 2.01257 19.3143C2.27623 19.5794 2.63432 19.729 3.00818 19.7302H4.27557V22.1262C4.27665 22.2019 4.30048 22.2754 4.34397 22.3374C4.38746 22.3993 4.44859 22.4467 4.51939 22.4734C4.5902 22.5001 4.6674 22.5049 4.74095 22.4871C4.8145 22.4693 4.88099 22.4298 4.93176 22.3736L7.26779 19.7302H13.3123C13.6861 19.729 14.0442 19.5794 14.3079 19.3143C14.5715 19.0493 14.7192 18.6904 14.7184 18.3165V13.1832H10.6875C10.1149 13.1815 9.56642 12.9527 9.16225 12.5471C8.75808 12.1416 8.53123 11.5923 8.53143 11.0197ZM7.87525 12.3771C7.87657 12.2785 7.91666 12.1844 7.98684 12.1152C8.05702 12.0459 8.15164 12.0071 8.25022 12.0071C8.34881 12.0071 8.44343 12.0459 8.5136 12.1152C8.58377 12.1844 8.62386 12.2785 8.62518 12.3771V16.3142C8.62385 16.4128 8.58376 16.5069 8.51358 16.5761C8.4434 16.6454 8.34878 16.6842 8.2502 16.6842C8.15161 16.6842 8.057 16.6453 7.98682 16.5761C7.91665 16.5069 7.87656 16.4128 7.87525 16.3142V12.3771ZM8.25772 18.0016C8.15984 17.9997 8.06659 17.9596 7.99787 17.8899C7.92915 17.8201 7.89041 17.7263 7.88993 17.6284C7.88944 17.5305 7.92724 17.4363 7.99526 17.3659C8.06329 17.2955 8.15614 17.2545 8.25399 17.2516C8.35186 17.2535 8.44512 17.2936 8.51383 17.3633C8.58255 17.4331 8.62129 17.5269 8.62178 17.6248C8.62226 17.7227 8.58446 17.8169 8.51644 17.8873C8.44841 17.9577 8.35557 17.9987 8.25772 18.0016Z" fill="url(#paint0_linear_514_742)"/>
<defs>
<linearGradient id="paint0_linear_514_742" x1="1.60187" y1="12" x2="22.3979" y2="12" gradientUnits="userSpaceOnUse">
<stop stop-color="#A954FF"/>
<stop offset="1" stop-color="#715AFF"/>
</linearGradient>
</defs>
</svg>
