<svg width="63" height="62" viewBox="0 0 63 62" fill="none" xmlns="http://www.w3.org/2000/svg">
<path d="M8.03271 18.1641L11.2501 57.0031C11.4806 59.804 13.8664 62 16.678 62H46.3223C49.1339 62 51.5197 59.804 51.7502 57.0031L54.9674 18.1641H8.03271ZM22.4164 54.7344C21.4655 54.7344 20.6656 53.9947 20.6053 53.0314L18.7889 23.7267C18.7267 22.7246 19.4877 21.8625 20.4882 21.8004C21.5258 21.7276 22.3507 22.4975 22.4145 23.4997L24.2309 52.8044C24.2952 53.8422 23.4741 54.7344 22.4164 54.7344ZM33.3165 52.918C33.3165 53.922 32.5041 54.7344 31.5001 54.7344C30.4961 54.7344 29.6837 53.922 29.6837 52.918V23.6133C29.6837 22.6093 30.4961 21.7969 31.5001 21.7969C32.5041 21.7969 33.3165 22.6093 33.3165 23.6133V52.918ZM44.2113 23.7269L42.3949 53.0316C42.3352 53.985 41.5404 54.7797 40.4685 54.7309C39.468 54.6687 38.7071 53.8067 38.7692 52.8045L40.5856 23.4998C40.6477 22.4976 41.5258 21.7685 42.512 21.8005C43.5125 21.8626 44.2734 22.7247 44.2113 23.7269Z" fill="#F1695F"/>
<path d="M55.1133 7.26562H44.2148V5.44922C44.2148 2.4444 41.7704 0 38.7656 0H24.2344C21.2296 0 18.7852 2.4444 18.7852 5.44922V7.26562H7.88672C5.88032 7.26562 4.25391 8.89204 4.25391 10.8984C4.25391 12.9046 5.88032 14.5312 7.88672 14.5312C24.5935 14.5312 38.4071 14.5312 55.1133 14.5312C57.1197 14.5312 58.7461 12.9046 58.7461 10.8984C58.7461 8.89204 57.1197 7.26562 55.1133 7.26562ZM40.582 7.26562H22.418V5.44922C22.418 4.44705 23.2322 3.63281 24.2344 3.63281H38.7656C39.7678 3.63281 40.582 4.44705 40.582 5.44922V7.26562Z" fill="#F1695F"/>
</svg>
