<svg width="55" height="55" viewBox="0 0 55 55" fill="none" xmlns="http://www.w3.org/2000/svg">
<g clip-path="url(#clip0_514_1805)">
<path d="M42.9286 0.398682H12.0713C9.47137 0.398682 7.35693 2.51312 7.35693 5.11305V49.6843C7.35693 52.2842 9.47137 54.3987 12.0713 54.3987H42.9286C45.5285 54.3987 47.643 52.2842 47.643 49.6843V5.11305C47.643 2.51312 45.5285 0.398682 42.9286 0.398682ZM17.2143 47.5415H15.5C14.7902 47.5415 14.2143 46.9656 14.2143 46.2558C14.2143 45.5461 14.7902 44.9701 15.5 44.9701H17.2143C17.9241 44.9701 18.5 45.5461 18.5 46.2558C18.5 46.9656 17.9241 47.5415 17.2143 47.5415ZM17.2143 40.6844H15.5C14.7902 40.6844 14.2143 40.1084 14.2143 39.3987C14.2143 38.6889 14.7902 38.113 15.5 38.113H17.2143C17.9241 38.113 18.5 38.6889 18.5 39.3987C18.5 40.1084 17.9241 40.6844 17.2143 40.6844ZM17.2143 33.8272H15.5C14.7902 33.8272 14.2143 33.2513 14.2143 32.5415C14.2143 31.8317 14.7902 31.2558 15.5 31.2558H17.2143C17.9241 31.2558 18.5 31.8317 18.5 32.5415C18.5 33.2513 17.9241 33.8272 17.2143 33.8272ZM21.0714 12.9987C21.0714 9.45381 23.955 6.57021 27.4999 6.57021C31.0449 6.57021 33.9285 9.45381 33.9285 12.9987V13.3378C33.9285 15.4805 32.7867 17.4971 30.9485 18.6004L29.3331 19.5697C28.9957 19.7722 28.7857 20.1431 28.7857 20.5365V22.2557C28.7857 22.9655 28.2097 23.5414 27.4999 23.5414C26.7902 23.5414 26.2142 22.9655 26.2142 22.2557V20.5365C26.2142 19.244 26.9022 18.0287 28.0106 17.3648L29.626 16.3955C30.6932 15.7543 31.3571 14.5825 31.3571 13.3378V12.9987C31.3571 10.8718 29.6269 9.14162 27.4999 9.14162C25.373 9.14162 23.6428 10.8718 23.6428 12.9987C23.6428 13.7085 23.0669 14.2844 22.3571 14.2844C21.6474 14.2844 21.0714 13.7085 21.0714 12.9987ZM28.7857 26.5843C28.7857 27.2944 28.21 27.87 27.4999 27.87C26.7898 27.87 26.2142 27.2944 26.2142 26.5843C26.2142 25.8742 26.7898 25.2986 27.4999 25.2986C28.21 25.2986 28.7857 25.8742 28.7857 26.5843ZM39.4999 47.5415H24.0715C23.3617 47.5415 22.7857 46.9656 22.7857 46.2558C22.7857 45.5461 23.3617 44.9701 24.0715 44.9701H39.5001C40.2099 44.9701 40.7858 45.5461 40.7858 46.2558C40.7858 46.9656 40.2097 47.5415 39.4999 47.5415ZM39.4999 40.6844H24.0715C23.3617 40.6844 22.7857 40.1084 22.7857 39.3987C22.7857 38.6889 23.3617 38.113 24.0715 38.113H39.5001C40.2099 38.113 40.7858 38.6889 40.7858 39.3987C40.7858 40.1084 40.2097 40.6844 39.4999 40.6844ZM39.4999 33.8272H24.0715C23.3617 33.8272 22.7857 33.2513 22.7857 32.5415C22.7857 31.8317 23.3617 31.2558 24.0715 31.2558H39.5001C40.2099 31.2558 40.7858 31.8317 40.7858 32.5415C40.7858 33.2513 40.2097 33.8272 39.4999 33.8272Z" fill="black" fill-opacity="0.4"/>
</g>
<defs>
<clipPath id="clip0_514_1805">
<rect width="54" height="54" fill="white" transform="translate(0.5 0.398682)"/>
</clipPath>
</defs>
</svg>
